<svg width="987" height="712" viewBox="0 0 987 712" fill="none" xmlns="http://www.w3.org/2000/svg">
<g clip-path="url(#clip0_10_89)">
<path d="M447.082 214.896L461.844 207.628L460.439 204.786L448.875 210.471L436.924 186.213L433.742 187.779L447.082 214.896Z" fill="white"/>
<path d="M489.081 198.101C495.379 195.985 498.06 190.478 495.912 184.099L489.533 165.09L486.174 166.22L492.537 185.197C494.055 189.751 492.375 193.611 488.063 195.049C483.751 196.502 479.988 194.29 478.535 189.945L472.155 170.92L468.78 172.051L475.159 191.076C477.291 197.455 482.75 200.233 489.081 198.101Z" fill="white"/>
<path d="M516.453 189.18L520.458 188.454L525.804 174.274L536.011 185.611L540.065 184.868L527.484 171.141L534.218 155.233L530.165 155.976L524.867 169.17L515.5 158.64L511.446 159.383L523.107 171.932L516.453 189.18Z" fill="white"/>
<path d="M568.856 183.541C575.493 183.283 579.612 178.761 579.353 172.042L578.594 152L575.041 152.129L575.8 172.123C575.978 176.92 573.265 180.15 568.727 180.328C564.188 180.505 561.201 177.307 561.023 172.721L560.264 152.678L556.711 152.824L557.47 172.866C557.728 179.585 562.17 183.784 568.856 183.541Z" fill="white"/>
<path d="M618.983 185.816C620.825 186.009 622.585 185.218 623.877 183.668L622.31 181.39C621.551 182.473 620.728 182.989 620.001 182.909C619.145 182.812 618.79 182.036 618.66 180.987L617.837 175.383C617.562 173.59 616.819 172.088 615.382 171.103V171.07C620.066 170.764 623.199 167.776 623.619 163.9C624.184 158.748 620.469 154.759 614.639 154.129L603.011 152.869L599.732 182.892L603.269 183.28L604.674 170.457L610.424 171.087C612.426 171.297 613.88 173.008 614.219 175.334L615.269 181.923C615.608 183.975 616.69 185.557 618.983 185.816ZM605.014 167.307L606.192 156.406L614.122 157.262C617.998 157.682 620.453 160.104 620.082 163.48C619.743 166.661 616.819 168.583 612.943 168.163L605.014 167.307Z" fill="white"/>
<path d="M648.546 190.846L651.986 191.734L654.764 180.849L668.815 164.844L664.987 163.875L654.037 176.811L653.957 176.795L650.387 160.128L646.641 159.175L651.324 179.977L648.546 190.846Z" fill="white"/>
<path d="M710.414 215.234C716.196 218.205 721.477 216.494 723.803 211.955C725.709 208.257 724.675 204.833 720.751 201.135L717.278 197.759C714.71 195.272 714.097 193.269 715.26 191.025C716.6 188.424 719.62 187.423 722.769 189.054C725.903 190.669 726.952 194.158 725.353 197.711L728.745 198.534C730.764 193.657 729.1 188.747 724.223 186.244C719.039 183.579 714.21 185.275 711.933 189.7C710.091 193.269 710.915 196.451 714.549 199.956L718.07 203.363C720.896 206.173 721.623 208.321 720.46 210.583C719.039 213.36 715.647 214.313 711.949 212.407C707.766 210.243 706.135 205.737 708.218 201.425L704.713 200.44C702.178 206.125 704.423 212.149 710.414 215.234Z" fill="white"/>
<path d="M741.573 232.835L744.48 234.887L759.968 212.712L767.203 217.767L769.028 215.167L751.634 203.022L749.825 205.622L757.061 210.677L741.573 232.835Z" fill="white"/>
<path d="M764.408 250.006L767.154 252.542L773.84 248.86L783.288 257.645L780.123 264.574L782.82 267.093L795.805 237.91L792.526 234.873L764.408 250.006ZM776.683 247.18L791.896 238.846L791.961 238.911L784.725 254.641L776.683 247.18Z" fill="white"/>
<path d="M802.484 291.145C805.472 294.908 809.849 296.523 814.419 295.796L814.451 295.845L810.317 299.527L812.19 301.885L825.256 291.549L814.161 277.498L811.674 279.468L820.54 290.693C815.259 294.859 809.106 294.326 805.327 289.546C801.289 284.442 802.646 277.853 808.67 273.105C814.791 268.26 821.315 268.292 825.111 273.105C827.501 276.125 827.42 280.389 825.03 283.861L827.969 285.864C831.07 281.277 830.989 275.447 827.63 271.167C822.462 264.642 813.999 264.303 806.425 270.279C798.899 276.222 797.316 284.588 802.484 291.145Z" fill="white"/>
<path d="M822.768 318.492L824.609 321.544L850.465 305.895L848.624 302.859L822.768 318.492Z" fill="white"/>
<path d="M834.695 339.506L836.181 342.736L859.454 332.109L859.486 332.189L841.478 354.348L843.562 358.918L871.05 346.369L869.548 343.091L846.275 353.718L846.243 353.637L864.266 331.511L862.183 326.957L834.695 339.506Z" fill="white"/>
<path d="M853.328 390.646C854.62 395.265 858.044 398.43 862.534 399.544L862.55 399.577L857.317 401.402L858.125 404.293L874.178 399.787L869.349 382.538L866.297 383.394L870.157 397.186C863.681 398.995 858.206 396.121 856.558 390.258C854.798 383.992 858.577 378.436 865.974 376.369C873.484 374.269 879.492 376.805 881.139 382.7C882.189 386.414 880.477 390.323 876.924 392.616L878.878 395.588C883.497 392.551 885.677 387.125 884.208 381.892C881.963 373.882 874.275 370.296 864.989 372.896C855.751 375.497 851.067 382.587 853.328 390.646Z" fill="white"/>
<path d="M864.42 448.495L864.549 451.967L876.63 451.564L876.872 458.96C877.066 464.839 880.942 468.909 886.255 468.731C891.569 468.537 895.186 464.258 894.993 458.347L894.621 447.478L864.42 448.495ZM879.828 451.451L891.569 451.047L891.811 458.201C891.94 462.223 889.598 465.049 886.126 465.162C882.702 465.291 880.215 462.546 880.07 458.605L879.828 451.451Z" fill="white"/>
<path d="M861.458 507.416C861.264 509.257 862.056 511.018 863.606 512.31L865.883 510.743C864.801 509.984 864.284 509.16 864.365 508.434C864.462 507.578 865.237 507.222 866.287 507.093L871.891 506.286C873.684 505.995 875.186 505.268 876.171 503.815H876.219C876.526 508.514 879.498 511.631 883.374 512.067C888.526 512.633 892.515 508.918 893.145 503.088L894.421 491.46L864.397 488.165L864.01 491.702L876.833 493.107L876.203 498.856C875.977 500.859 874.265 502.313 871.939 502.668L865.366 503.702C863.299 504.041 861.716 505.123 861.458 507.416ZM879.982 493.462L890.884 494.657L890.012 502.571C889.592 506.447 887.169 508.902 883.81 508.53C880.612 508.175 878.69 505.252 879.11 501.376L879.982 493.462Z" fill="white"/>
<path d="M854.052 542.251C851.758 550.682 856.41 557.804 865.793 560.356C875.176 562.891 882.735 559.096 885.028 550.649C887.305 542.251 882.67 535.097 873.287 532.545C863.936 530.009 856.329 533.853 854.052 542.251ZM857.153 543.091C858.865 536.76 864.872 533.95 872.35 535.985C879.892 538.02 883.687 543.495 881.976 549.826C880.247 556.157 874.223 558.902 866.697 556.867C859.204 554.832 855.441 549.422 857.153 543.091Z" fill="white"/>
<path d="M251.856 559L258.736 526.667C257.88 529.752 249.45 552.298 168.941 552.298H121.621C120.248 548.68 119.214 543.173 119.214 535.098V335.19C119.214 314.711 126.272 312.483 126.272 312.483H91C91 312.483 98.2353 314.889 98.2353 335.367V535.098C98.2353 555.56 91 559 91 559H251.856Z" fill="white"/>
<path d="M472.035 492.429C472.035 529.251 449.845 553.153 402.008 553.153C350.747 553.153 329.59 504.993 326.667 494.141L312.035 517.881C317.38 527.523 341.622 559.178 401.846 559.178C461.877 559.178 499.555 539.393 499.555 489.505C499.555 403.489 346.273 436.339 346.273 367.361C346.273 330.894 377.072 319.023 400.812 319.023C463.427 319.023 473.069 368.395 473.069 368.395L479.949 330.539C479.949 330.539 446.566 312.644 403.396 312.644C334.225 312.644 324.422 357.897 324.422 367.523C324.422 456.3 472.035 420.512 472.035 492.429Z" fill="white"/>
<path d="M654.87 312.644C649.88 312.644 552.849 312.644 552.849 312.644C552.849 312.644 560.084 316.084 560.084 336.563V536.131C560.084 556.594 552.849 559 552.849 559H588.121C588.121 559 581.064 556.771 581.064 536.293V463.52H642.483C711.816 463.52 738.658 435.822 738.658 385.772C738.658 340.859 699.946 312.644 654.87 312.644ZM631.985 457.334H581.064V336.563C581.064 328.988 581.936 323.659 583.131 320.219H642.483C677.755 320.219 716.806 338.452 716.806 386.289C716.806 445.803 679.822 457.334 631.985 457.334Z" fill="white"/>
</g>
<defs>
<clipPath id="clip0_10_89">
<rect width="987" height="712" fill="white"/>
</clipPath>
</defs>
</svg>
